<?xml version="1.0" encoding="UTF-8"?>
<svg id="Layer_1" data-name="Layer 1" xmlns="http://www.w3.org/2000/svg" viewBox="0 0 97.56 96">
  <defs>
    <style>
      .cls-1 {
        fill: #17ad99;
      }

      .cls-2 {
        fill: #e8b90e;
      }
    </style>
  </defs>
  <path class="cls-1" d="M78.51,56.96h0l15.31-9.96c.97-.65.16-2.11-.89-1.62l-16.44,7.53.16.24,1.86,3.73v.08Z"/>
  <path class="cls-1" d="M64.01,66.44l-3.24-6.32h0l-31.1,14.26,8.02-15.88-20.33,2.11L.1,94.62c-.32.65.16,1.38.89,1.38h15.63c1.38,0,2.75-.4,3.89-1.13l43.5-28.35h0v-.08Z"/>
  <rect class="cls-1" x="62.58" y="59.46" height="7.13"/>
  <path class="cls-2" d="M97.38,94.3l-18.22-35.96-.65-1.38-1.86-3.73-.16-.24h0L50,.67c-.49-.89-1.78-.89-2.27,0l-5.1,10.04-3.4,6.72-21.79,43.09,20.33-2.11,10.37-20.49c.32-.57,1.13-.57,1.46,0l11.26,22.19h0l3.24,6.32h0l1.05,2.11,13.12,25.92c.49.89,1.38,1.46,2.35,1.46h15.79c.89,0,1.38-.89,1.05-1.7l-.08.08Z"/>
  <polygon class="cls-1" points="76.64 53.24 78.51 56.96 78.51 56.96 76.64 53.24"/>
</svg>