<?xml version="1.0" encoding="UTF-8"?>
<svg id="Layer_1" xmlns="http://www.w3.org/2000/svg" width="297mm" height="210mm" version="1.1" viewBox="0 0 841.9 595.3">
  <!-- Generator: Adobe Illustrator 30.0.0, SVG Export Plug-In . SVG Version: 2.1.1 Build 123)  -->
  <defs>
    <style>
      .st0 {
        fill: #061d45;
      }

      .st1 {
        fill: #17ad99;
      }

      .st2 {
        fill: #e8b90e;
      }
    </style>
  </defs>
  <g>
    <path class="st0" d="M287.7,337.3l33.2-90.8h18.7l33.2,90.8h-17.6l-7.1-20.6h-35.7l-7.3,20.6h-17.4ZM317.1,303.3h26.3l-13.2-37.7-13.1,37.7Z"/>
    <path class="st0" d="M401.9,338.8c-4.8,0-9.4-.9-13.6-2.7-4.2-1.8-7.7-4.3-10.4-7.6-2.7-3.3-4.2-7.1-4.5-11.5h16.6c.4,2.8,1.8,4.9,4.1,6.5,2.3,1.6,4.9,2.3,7.7,2.3s4.7-.5,6.8-1.6c2.1-1.1,3.2-2.8,3.2-5.1s-.8-3.2-2.3-4.3c-1.6-1-3.4-1.9-5.4-2.5-2.1-.6-4-1.1-5.7-1.6-4.3-1-8.3-2.3-11.8-3.7-3.5-1.4-6.4-3.4-8.4-6-2.1-2.5-3.1-5.9-3.1-10.2s1.2-7.7,3.6-10.6c2.4-2.9,5.5-5.2,9.5-6.7,3.9-1.5,8.2-2.3,12.8-2.3,7.2,0,13.2,1.8,18.2,5.4s7.6,9,8,16.1h-15.7c-.3-2.8-1.4-4.9-3.4-6.3-2-1.4-4.6-2.1-7.6-2.1s-4.6.4-6.5,1.3c-1.9.9-2.9,2.5-2.9,4.9s.8,3.1,2.3,4.2c1.6,1.1,3.4,1.9,5.6,2.6,2.2.6,4.1,1.2,5.7,1.6,4.5,1.1,8.5,2.4,11.9,3.9,3.4,1.5,6.1,3.5,8.1,6,2,2.5,3,5.9,3.1,10.1,0,4.2-1.2,7.8-3.6,10.8-2.4,2.9-5.5,5.2-9.4,6.7-3.9,1.5-8.1,2.3-12.7,2.3Z"/>
    <path class="st0" d="M459.5,338.8c-4.8,0-9.4-.9-13.6-2.7-4.2-1.8-7.7-4.3-10.4-7.6-2.7-3.3-4.2-7.1-4.5-11.5h16.6c.4,2.8,1.8,4.9,4.1,6.5,2.3,1.6,4.9,2.3,7.7,2.3s4.7-.5,6.8-1.6c2.1-1.1,3.2-2.8,3.2-5.1s-.8-3.2-2.3-4.3c-1.6-1-3.4-1.9-5.4-2.5-2.1-.6-4-1.1-5.7-1.6-4.3-1-8.3-2.3-11.8-3.7-3.5-1.4-6.4-3.4-8.4-6-2.1-2.5-3.1-5.9-3.1-10.2s1.2-7.7,3.6-10.6c2.4-2.9,5.5-5.2,9.5-6.7,3.9-1.5,8.2-2.3,12.8-2.3,7.2,0,13.2,1.8,18.2,5.4s7.6,9,8,16.1h-15.7c-.3-2.8-1.4-4.9-3.4-6.3-2-1.4-4.6-2.1-7.6-2.1s-4.6.4-6.5,1.3c-1.9.9-2.9,2.5-2.9,4.9s.8,3.1,2.3,4.2c1.6,1.1,3.4,1.9,5.6,2.6,2.2.6,4.1,1.2,5.7,1.6,4.5,1.1,8.4,2.4,11.9,3.9,3.4,1.5,6.1,3.5,8.1,6,2,2.5,3,5.9,3.1,10.1,0,4.2-1.2,7.8-3.6,10.8-2.4,2.9-5.5,5.2-9.4,6.7-3.9,1.5-8.1,2.3-12.7,2.3Z"/>
    <path class="st0" d="M515.9,338.8c-5.5,0-10.2-1.2-14.1-3.6-3.9-2.4-6.9-5.7-8.9-9.9-2.1-4.2-3.1-9-3.1-14.3v-38.1h16.5v35.7c0,4.8,1.2,8.6,3.7,11.7,2.5,3,6.1,4.5,10.8,4.5s8.6-1.5,11-4.4c2.4-2.9,3.6-6.9,3.6-11.8v-35.7h16.6v64.3h-16.6v-7.5c-2.2,2.9-5,5.2-8.5,6.7s-7.2,2.3-11,2.3Z"/>
    <path class="st0" d="M558.4,337.3v-64.3h16.5v9.6c2.2-3.6,5.1-6.4,8.6-8.3,3.5-1.9,7.3-2.9,11.5-2.9v17.4h-4.4c-5.3,0-9.2,1.3-11.8,3.8-2.6,2.5-3.9,6.7-3.9,12.6v32.2h-16.5Z"/>
    <path class="st0" d="M602,337.3v-90.8h16.6v90.8h-16.6Z"/>
    <path class="st0" d="M635,365.8l14.1-31.5-26.1-61.3h18.5l16.6,43.8,17-43.8h17.5l-40.2,92.9h-17.5Z"/>
  </g>
  <g>
    <path class="st1" d="M245.9,299.2h0l18.9-12.3c1.2-.8.2-2.6-1.1-2l-20.3,9.3.2.3,2.3,4.6Z"/>
    <path class="st1" d="M228,310.9l-4-7.8h0s-38.4,17.6-38.4,17.6l9.9-19.6-25.1,2.6-21.3,42c-.4.8.2,1.7,1.1,1.7h19.3c1.7,0,3.4-.5,4.8-1.4l53.7-35h0Z"/>
    <rect class="st1" x="226.1" y="302.6" height="8.8" transform="translate(-114.3 135.2) rotate(-26.9)"/>
    <path class="st2" d="M269.2,345.3l-22.5-44.4-.8-1.7-2.3-4.6-.2-.3h0l-32.7-64.6c-.6-1.1-2.2-1.1-2.8,0l-6.3,12.4-4.2,8.3-26.9,53.2,25.1-2.6,12.8-25.3c.4-.7,1.4-.7,1.8,0l13.9,27.4h0s4,7.8,4,7.8h0l1.3,2.6,16.2,32c.6,1.1,1.7,1.8,2.9,1.8h19.5c1.1,0,1.7-1.1,1.3-2.1Z"/>
    <polygon class="st1" points="243.6 294.6 245.9 299.2 245.9 299.2 243.6 294.6"/>
  </g>
</svg>